<?xml version="1.0" encoding="UTF-8"?>
<svg width="35px" height="35px" viewBox="0 0 35 35" version="1.1" xmlns="http://www.w3.org/2000/svg" xmlns:xlink="http://www.w3.org/1999/xlink">
    <!-- Generator: Sketch 53.2 (72643) - https://sketchapp.com -->
    <title>key</title>
    <desc>Created with Sketch.</desc>
    <g id="Page-1" stroke="none" stroke-width="1" fill="none" fill-rule="evenodd">
        <g id="key" fill-rule="nonzero">
            <rect id="Rectangle" fill="#D8D8D8" x="0" y="0" width="35" height="35"></rect>
            <path d="M19.2313069,20.0279523 L15.3703704,23.8888889 L12.8148148,23.8888889 L12.8148148,26.4444444 L10.2592593,26.4444444 L10.2592593,29 L6,29 L6,24.7407407 L14.9720477,15.7686931 C14.6788001,14.9816884 14.5185185,14.1299325 14.5185185,13.2407407 C14.5185185,9.24178985 17.7603084,6 21.7592593,6 C25.7582101,6 29,9.24178985 29,13.2407407 C29,17.2396916 25.7582101,20.4814815 21.7592593,20.4814815 C20.8700675,20.4814815 20.0183116,20.3211999 19.2313069,20.0279523 L19.2313069,20.0279523 L19.2313069,20.0279523 Z M26,11.5 C26,10.1192881 24.8807119,9 23.5,9 C22.1192881,9 21,10.1192881 21,11.5 C21,12.8807119 22.1192881,14 23.5,14 C24.8807119,14 26,12.8807119 26,11.5 L26,11.5 Z" id="Shape" fill="#3232A3"></path>
        </g>
    </g>
</svg>